<svg width="160" height="48" viewBox="0 0 160 48" fill="none" xmlns="http://www.w3.org/2000/svg">
  <rect width="160" height="48" rx="12" fill="#050509"/>
  <rect x="2" y="2" width="156" height="44" rx="10" fill="url(#paint0_linear)" fill-opacity="0.08"/>
  <path d="M30.983 30.338c-5.005 0-8.338-3.439-8.338-8.418 0-5.01 3.333-8.449 8.338-8.449 3.053 0 5.5 1.302 6.712 3.006l-2.445 1.928c-.75-1.105-2.131-1.906-4.17-1.906-3.396 0-5.621 2.355-5.621 5.421 0 3.251 2.225 5.46 5.621 5.46 2.039 0 3.453-.801 4.17-1.906l2.445 1.927c-1.212 1.705-3.659 3.037-6.712 3.037Z" fill="#F9FAFB"/>
  <path d="M47.897 22.315c0 4.979-2.787 7.962-7.35 7.962-4.564 0-7.397-3.015-7.397-8.024 0-5.01 2.833-8.024 7.397-8.024 4.563 0 7.35 3.015 7.35 8.086Zm-11.421-.031c0 3.19 1.57 4.979 4.118 4.979 2.547 0 4.07-1.789 4.07-5.01 0-3.252-1.523-5.01-4.07-5.01-2.548 0-4.118 1.758-4.118 5.041Z" fill="#F9FAFB"/>
  <path d="M48.928 14.0h3.146l.31 1.418c1.26-1.01 3.01-1.825 5.201-1.825 3.921 0 6.066 2.139 6.066 6.433v9.866h-3.459V20.3c0-2.559-1.087-3.7-3.295-3.7-1.397 0-2.662.527-3.873 1.57v10.108h-3.459V14Z" fill="#F9FAFB"/>
  <path d="M68.734 27.37c1.398.987 3.09 1.57 4.64 1.57 2.067 0 3.033-.77 3.033-1.928 0-1.179-.82-1.634-3.801-2.375-3.893-1.003-5.577-2.131-5.577-4.795 0-2.652 2.357-4.51 6.141-4.51 2.147 0 4.046.527 5.687 1.545l-1.266 2.62c-1.323-.832-2.853-1.326-4.47-1.326-1.934 0-2.898.739-2.898 1.835 0 1.106.86 1.603 3.919 2.405 3.921 1.01 5.459 2.2 5.459 4.857 0 2.867-2.331 4.793-6.47 4.793-2.425 0-4.674-.648-6.404-1.85l1.407-2.841Z" fill="#F9FAFB"/>
  <path d="M85.947 17.716h-3.146v-3.0h3.146V11h3.447v3.716h5.074v3.0h-5.074v6.38c0 1.673.607 2.405 2.22 2.405.94 0 1.758-.179 2.6-.555l.74 2.731c-1.126.494-2.51.86-3.94.86-3.512 0-5.067-1.655-5.067-4.95v-6.398Z" fill="#D4AF37"/>
  <path d="M106.153 14c4.24 0 7.243 2.999 7.243 7.931 0 4.933-3.003 7.932-7.243 7.932-4.24 0-7.243-2.999-7.243-7.932 0-4.932 3.003-7.931 7.243-7.931Zm0 3.053c-2.533 0-4.01 1.999-4.01 4.878 0 2.88 1.477 4.878 4.01 4.878 2.532 0 4.01-1.998 4.01-4.878 0-2.879-1.478-4.878-4.01-4.878Z" fill="#F9FAFB"/>
  <defs>
    <linearGradient id="paint0_linear" x1="0" y1="0" x2="160" y2="48" gradientUnits="userSpaceOnUse">
      <stop stop-color="#D4AF37" stop-opacity=".6"/>
      <stop offset="1" stop-color="#D4AF37" stop-opacity=".1"/>
    </linearGradient>
  </defs>
</svg>
